<svg width="32" height="27" viewBox="0 0 32 27" fill="none" xmlns="http://www.w3.org/2000/svg">
    <path d="M30.3547 3.08751C29.8675 2.88456 29.3309 2.83121 28.8132 2.93427C28.2956 3.03732 27.8203 3.29211 27.448 3.66618L24 7.11418L17.8853 0.999514C17.3853 0.499591 16.7071 0.21875 16 0.21875C15.2929 0.21875 14.6147 0.499591 14.1147 0.999514L8 7.11418L4.552 3.66618C4.17906 3.29336 3.70396 3.03947 3.18675 2.93663C2.66954 2.83378 2.13345 2.88659 1.64625 3.08837C1.15906 3.29016 0.74262 3.63187 0.449596 4.07029C0.156571 4.50872 0.000112598 5.02418 0 5.55151L0 19.6662C0.00211714 21.4336 0.705176 23.1281 1.95496 24.3779C3.20474 25.6277 4.89921 26.3307 6.66667 26.3328H25.3333C27.1008 26.3307 28.7953 25.6277 30.045 24.3779C31.2948 23.1281 31.9979 21.4336 32 19.6662V5.55151C32.0001 5.02414 31.8439 4.50856 31.551 4.06998C31.2582 3.6314 30.8418 3.2895 30.3547 3.08751Z" fill="#0098FF"/>
</svg>
