<svg width="90" height="84" viewBox="0 0 90 84" fill="none" xmlns="http://www.w3.org/2000/svg">
<g filter="url(#filter0_d_3036_3919)">
<rect x="20" y="20" width="52" height="44" rx="8" fill="white" shape-rendering="crispEdges"/>
<path d="M45.1163 50.875C44.7163 50.875 44.3247 50.775 43.958 50.575C43.2247 50.1667 42.783 49.425 42.783 48.5917V44.175C42.783 43.7583 42.508 43.1333 42.2497 42.8167L39.133 39.5167C38.608 38.9917 38.208 38.0917 38.208 37.4167V35.5C38.208 34.1667 39.2163 33.125 40.4997 33.125H51.4997C52.7663 33.125 53.7913 34.15 53.7913 35.4167V37.25C53.7913 38.125 53.2663 39.1167 52.7747 39.6083L49.1663 42.8C48.8163 43.0917 48.5413 43.7333 48.5413 44.25V47.8333C48.5413 48.575 48.0747 49.4333 47.4913 49.7833L46.3413 50.525C45.9663 50.7583 45.5413 50.875 45.1163 50.875ZM40.4997 34.375C39.9163 34.375 39.458 34.8667 39.458 35.5V37.4167C39.458 37.725 39.708 38.325 40.0247 38.6417L43.1997 41.9833C43.6247 42.5083 44.0413 43.3833 44.0413 44.1667V48.5833C44.0413 49.125 44.4163 49.3917 44.5747 49.475C44.9247 49.6667 45.3497 49.6667 45.6747 49.4667L46.833 48.725C47.0663 48.5833 47.2997 48.1333 47.2997 47.8333V44.25C47.2997 43.3583 47.733 42.375 48.358 41.85L51.9247 38.6917C52.208 38.4083 52.5497 37.7333 52.5497 37.2417V35.4167C52.5497 34.8417 52.083 34.375 51.508 34.375H40.4997Z" fill="#919191"/>
</g>
<defs>
<filter id="filter0_d_3036_3919" x="0" y="0" width="92" height="84" filterUnits="userSpaceOnUse" color-interpolation-filters="sRGB">
<feFlood flood-opacity="0" result="BackgroundImageFix"/>
<feColorMatrix in="SourceAlpha" type="matrix" values="0 0 0 0 0 0 0 0 0 0 0 0 0 0 0 0 0 0 127 0" result="hardAlpha"/>
<feOffset/>
<feGaussianBlur stdDeviation="10"/>
<feComposite in2="hardAlpha" operator="out"/>
<feColorMatrix type="matrix" values="0 0 0 0 0.00523333 0 0 0 0 0 0 0 0 0 0.261667 0 0 0 0.2 0"/>
<feBlend mode="normal" in2="BackgroundImageFix" result="effect1_dropShadow_3036_3919"/>
<feBlend mode="normal" in="SourceGraphic" in2="effect1_dropShadow_3036_3919" result="shape"/>
</filter>
</defs>
</svg>
