<svg width="20" height="20" viewBox="0 0 20 20" fill="none" xmlns="http://www.w3.org/2000/svg">
<path d="M9.11634 18.875C8.71634 18.875 8.32467 18.775 7.95801 18.575C7.22467 18.1667 6.78301 17.425 6.78301 16.5917V12.175C6.78301 11.7583 6.50801 11.1333 6.24967 10.8167L3.13301 7.51667C2.60801 6.99167 2.20801 6.09167 2.20801 5.41667V3.5C2.20801 2.16667 3.21634 1.125 4.49967 1.125H15.4997C16.7663 1.125 17.7913 2.15 17.7913 3.41667V5.25C17.7913 6.125 17.2663 7.11667 16.7747 7.60833L13.1663 10.8C12.8163 11.0917 12.5413 11.7333 12.5413 12.25V15.8333C12.5413 16.575 12.0747 17.4333 11.4913 17.7833L10.3413 18.525C9.96634 18.7583 9.54134 18.875 9.11634 18.875ZM4.49967 2.375C3.91634 2.375 3.45801 2.86667 3.45801 3.5V5.41667C3.45801 5.725 3.70801 6.325 4.02467 6.64167L7.19967 9.98333C7.62467 10.5083 8.04134 11.3833 8.04134 12.1667V16.5833C8.04134 17.125 8.41634 17.3917 8.57467 17.475C8.92467 17.6667 9.34967 17.6667 9.67467 17.4667L10.833 16.725C11.0663 16.5833 11.2997 16.1333 11.2997 15.8333V12.25C11.2997 11.3583 11.733 10.375 12.358 9.85L15.9247 6.69167C16.208 6.40833 16.5497 5.73333 16.5497 5.24167V3.41667C16.5497 2.84167 16.083 2.375 15.508 2.375H4.49967Z" fill="#919191"/>
</svg>
