<svg width="18" height="19" viewBox="0 0 18 19" fill="none" xmlns="http://www.w3.org/2000/svg">
<path fill-rule="evenodd" clip-rule="evenodd" d="M9.00455 2C7.22308 1.99803 5.49915 2.64688 4.14172 3.83028C2.78428 5.01367 1.88207 6.65425 1.59677 8.458C1.31147 10.2617 1.66174 12.1108 2.5848 13.6737C3.50786 15.2366 4.94337 16.4112 6.63407 16.9871C7.01226 17.0584 7.14689 16.8203 7.14689 16.617C7.14689 16.4331 7.13933 15.828 7.1363 15.1855C5.05098 15.6511 4.61152 14.2786 4.61152 14.2786C4.47389 13.8136 4.17882 13.4143 3.77951 13.1528C3.09877 12.6757 3.8317 12.6873 3.8317 12.6873C4.06937 12.7209 4.29641 12.8097 4.49553 12.947C4.69464 13.0843 4.86056 13.2664 4.98063 13.4795C5.0822 13.6691 5.21941 13.8362 5.38434 13.9711C5.54926 14.1061 5.73862 14.2061 5.94148 14.2655C6.14433 14.3248 6.35664 14.3424 6.56614 14.3171C6.77564 14.2918 6.97817 14.2241 7.16202 14.118C7.19546 13.7279 7.36428 13.3631 7.63778 13.09C5.97375 12.896 4.22275 12.2365 4.22275 9.28833C4.2124 8.52432 4.48922 7.78557 4.99576 7.22534C4.76615 6.56237 4.79185 5.8345 5.06762 5.19029C5.06762 5.19029 5.69692 4.98392 7.1295 5.97856C8.35801 5.63409 9.65412 5.63409 10.8826 5.97856C12.3122 4.98392 12.9377 5.19029 12.9377 5.19029C13.2146 5.83402 13.2417 6.56186 13.0133 7.22534C13.5197 7.78559 13.796 8.52447 13.7848 9.28833C13.7848 12.242 12.0308 12.8914 10.3622 13.0814C10.5409 13.2678 10.6787 13.4912 10.7665 13.7365C10.8543 13.9819 10.89 14.2437 10.8713 14.5044C10.8713 15.5331 10.8622 16.3617 10.8622 16.6147C10.8622 16.8187 10.9976 17.0584 11.3773 16.9832C13.0654 16.4052 14.4979 15.2299 15.4187 13.6678C16.3394 12.1056 16.6883 10.2584 16.403 8.45654C16.1177 6.65468 15.2167 5.01573 13.8612 3.83283C12.5057 2.64993 10.7842 2.00025 9.00455 2Z" fill="#0098FF"/>
</svg>
