<svg width="82" height="83" viewBox="0 0 82 83" fill="none" xmlns="http://www.w3.org/2000/svg">
<g filter="url(#filter0_d_3036_4258)">
<rect x="24" y="16.5" width="34" height="34" rx="17" fill="white" shape-rendering="crispEdges"/>
<path fill-rule="evenodd" clip-rule="evenodd" d="M41.0046 26C39.2231 25.998 37.4992 26.6469 36.1417 27.8303C34.7843 29.0137 33.8821 30.6542 33.5968 32.458C33.3115 34.2617 33.6617 36.1108 34.5848 37.6737C35.5079 39.2366 36.9434 40.4112 38.6341 40.9871C39.0123 41.0584 39.1469 40.8203 39.1469 40.617C39.1469 40.4331 39.1393 39.828 39.1363 39.1855C37.051 39.6511 36.6115 38.2786 36.6115 38.2786C36.4739 37.8136 36.1788 37.4143 35.7795 37.1528C35.0988 36.6757 35.8317 36.6873 35.8317 36.6873C36.0694 36.7209 36.2964 36.8097 36.4955 36.947C36.6946 37.0843 36.8606 37.2664 36.9806 37.4795C37.0822 37.6691 37.2194 37.8362 37.3843 37.9711C37.5493 38.1061 37.7386 38.2061 37.9415 38.2655C38.1443 38.3248 38.3566 38.3424 38.5661 38.3171C38.7756 38.2918 38.9782 38.2241 39.162 38.118C39.1955 37.7279 39.3643 37.3631 39.6378 37.09C37.9738 36.896 36.2227 36.2365 36.2227 33.2883C36.2124 32.5243 36.4892 31.7856 36.9958 31.2253C36.7661 30.5624 36.7919 29.8345 37.0676 29.1903C37.0676 29.1903 37.6969 28.9839 39.1295 29.9786C40.358 29.6341 41.6541 29.6341 42.8826 29.9786C44.3122 28.9839 44.9377 29.1903 44.9377 29.1903C45.2146 29.834 45.2417 30.5619 45.0133 31.2253C45.5197 31.7856 45.796 32.5245 45.7848 33.2883C45.7848 36.242 44.0308 36.8914 42.3622 37.0814C42.5409 37.2678 42.6787 37.4912 42.7665 37.7365C42.8543 37.9819 42.89 38.2437 42.8713 38.5044C42.8713 39.5331 42.8622 40.3617 42.8622 40.6147C42.8622 40.8187 42.9976 41.0584 43.3773 40.9832C45.0654 40.4052 46.4979 39.2299 47.4187 37.6678C48.3394 36.1056 48.6883 34.2584 48.403 32.4565C48.1177 30.6547 47.2167 29.0157 45.8612 27.8328C44.5057 26.6499 42.7842 26.0002 41.0046 26Z" fill="#0098FF"/>
</g>
<defs>
<filter id="filter0_d_3036_4258" x="0" y="0.5" width="82" height="82" filterUnits="userSpaceOnUse" color-interpolation-filters="sRGB">
<feFlood flood-opacity="0" result="BackgroundImageFix"/>
<feColorMatrix in="SourceAlpha" type="matrix" values="0 0 0 0 0 0 0 0 0 0 0 0 0 0 0 0 0 0 127 0" result="hardAlpha"/>
<feOffset dy="8"/>
<feGaussianBlur stdDeviation="12"/>
<feComposite in2="hardAlpha" operator="out"/>
<feColorMatrix type="matrix" values="0 0 0 0 0.584314 0 0 0 0 0.615686 0 0 0 0 0.647059 0 0 0 0.3 0"/>
<feBlend mode="normal" in2="BackgroundImageFix" result="effect1_dropShadow_3036_4258"/>
<feBlend mode="normal" in="SourceGraphic" in2="effect1_dropShadow_3036_4258" result="shape"/>
</filter>
</defs>
</svg>
