<svg width="26" height="25" viewBox="0 0 26 25" fill="none" xmlns="http://www.w3.org/2000/svg">
    <path d="M24.8813 12.3089L13.6184 1.05418C13.5373 0.972922 13.4409 0.908458 13.3349 0.864475C13.2289 0.820491 13.1152 0.797852 13.0004 0.797852C12.8856 0.797852 12.7719 0.820491 12.6659 0.864475C12.5598 0.908458 12.4635 0.972922 12.3824 1.05418L1.11953 12.3089C0.791406 12.637 0.605469 13.0827 0.605469 13.5475C0.605469 14.5128 1.39023 15.2975 2.35547 15.2975H3.54219V23.3284C3.54219 23.8124 3.9332 24.2034 4.41719 24.2034H11.2504V18.0784H14.3129V24.2034H21.5836C22.0676 24.2034 22.4586 23.8124 22.4586 23.3284V15.2975H23.6453C24.1102 15.2975 24.5559 15.1143 24.884 14.7835C25.5648 14.0999 25.5648 12.9925 24.8813 12.3089Z" fill="url(#paint0_linear_4163_2098)" fill-opacity="0.85"/>
    <defs>
        <linearGradient id="paint0_linear_4163_2098" x1="33" y1="13" x2="-6.5" y2="13" gradientUnits="userSpaceOnUse">
            <stop stop-color="#0098FF"/>
            <stop offset="1" stop-color="#0098FF" stop-opacity="0.5"/>
        </linearGradient>
    </defs>
</svg>
