<svg width="393" height="475" viewBox="0 0 393 475" fill="none" xmlns="http://www.w3.org/2000/svg">
    <rect x="-58" width="499" height="453" fill="url(#paint0_linear_3031_3685)"/>
    <path fill-rule="evenodd" clip-rule="evenodd" d="M304.216 179.342C304.58 178.732 304.666 177.994 304.452 177.316C304.237 176.638 303.743 176.086 303.096 175.799C297.04 173.059 279.588 167.141 254.648 174.703C223.288 184.203 158.761 201.824 131.812 211.913C114.719 218.448 98.1188 226.22 82.1424 235.167C81.6804 235.422 81.4611 235.97 81.6175 236.476V236.659C81.8662 237.479 82.5256 238.107 83.3536 238.313C89.0866 239.693 113.24 243.835 157.953 230.295C209.692 214.623 278.932 195.714 289.712 191.004C297.958 187.37 302.207 182.63 304.216 179.342Z" fill="#E9F1F3"/>
    <g style="mix-blend-mode:multiply">
        <path fill-rule="evenodd" clip-rule="evenodd" d="M120.567 223L92.6663 231.832L87.5674 238.962C92.7843 239.747 98.0585 240.088 103.333 239.981L120.567 223Z" fill="#DBE9EB"/>
    </g>
    <path fill-rule="evenodd" clip-rule="evenodd" d="M132.807 214.372C159.746 204.29 224.203 186.662 255.549 177.158C272.947 171.878 287.369 171.939 296.567 173.391C287.934 170.934 273.481 169.045 254.813 174.701C223.477 184.205 158.999 201.832 132.071 211.925C115.75 218.173 99.8778 225.549 84.5674 234C94.9455 229.37 114.602 221.196 132.807 214.372Z" fill="white"/>
    <g style="mix-blend-mode:multiply">
        <path fill-rule="evenodd" clip-rule="evenodd" d="M288.176 185.653C277.426 190.36 208.302 209.27 156.658 224.923C120.671 235.839 94.3953 237.888 82.5674 237.553C82.8937 237.928 83.3261 238.194 83.8066 238.314C89.5291 239.694 113.638 243.833 158.27 230.3C209.914 214.636 279.028 195.737 289.788 191.03C297.968 187.449 302.21 182.711 304.215 179.384C304.65 178.658 304.685 177.757 304.305 177C300.82 179.8 294.493 182.894 288.176 185.653Z" fill="#DBE9EB"/>
    </g>
    <g style="mix-blend-mode:multiply">
        <path fill-rule="evenodd" clip-rule="evenodd" d="M231.403 208.042L235.567 201L223.287 204.551L197.382 212.01L186.567 221C203.265 216.068 215.232 212.71 231.403 208.042Z" fill="#DBE9EB"/>
    </g>
    <path fill-rule="evenodd" clip-rule="evenodd" d="M116.567 217.963C116.567 217.963 90.6455 208.365 77.4 199L65.5674 202.561L85.7153 233C91.3774 229.916 102.783 223.939 116.567 217.963Z" fill="#366CA7"/>
    <path fill-rule="evenodd" clip-rule="evenodd" d="M288.11 175.976L296.567 173.121C293.315 172.118 289.995 171.408 286.641 171L282.8 172.299C282.673 172.346 282.582 172.473 282.569 172.622C282.556 172.771 282.623 172.915 282.74 172.988L287.604 175.909C287.76 176 287.94 176.024 288.11 175.976Z" fill="#4487BA"/>
    <path fill-rule="evenodd" clip-rule="evenodd" d="M279.89 173.061L276.219 174.169C275.922 174.276 275.693 174.521 275.606 174.827C275.518 175.133 275.582 175.462 275.777 175.713L276.867 176.95C277.681 177.858 278.941 178.216 280.106 177.87L285.289 176.296C285.442 176.247 285.551 176.11 285.566 175.948C285.581 175.787 285.499 175.632 285.358 175.554L280.941 173.16C280.617 172.989 280.24 172.954 279.89 173.061Z" fill="#4487BA"/>
    <path fill-rule="evenodd" clip-rule="evenodd" d="M162.567 217.833L152.955 215L147.567 216.589L151.853 221L162.567 217.833Z" fill="#D7E7EB"/>
    <g style="mix-blend-mode:multiply">
        <path fill-rule="evenodd" clip-rule="evenodd" d="M162.567 217.833L152.955 215L147.567 216.589L151.853 221L162.567 217.833Z" fill="#DBE9EB"/>
    </g>
    <path fill-rule="evenodd" clip-rule="evenodd" d="M117.904 224.569L120.567 223C120.567 223 115.666 223.278 105.884 226.168C96.1016 229.058 76.5674 236 76.5674 236L117.904 224.569Z" fill="white"/>
    <path fill-rule="evenodd" clip-rule="evenodd" d="M120.567 223C120.567 223 117.388 226.744 106.481 230.032C96.9927 232.893 81.5699 236.18 77.7218 236.982C77.2182 237.078 76.7224 236.782 76.5674 236.292L120.567 223Z" fill="#D7E7EB"/>
    <g style="mix-blend-mode:multiply">
        <path fill-rule="evenodd" clip-rule="evenodd" d="M120.567 223C120.567 223 117.388 226.744 106.481 230.032C96.9927 232.893 81.5699 236.18 77.7218 236.982C77.2182 237.078 76.7224 236.782 76.5674 236.292L120.567 223Z" fill="#DBE9EB"/>
    </g>
    <path fill-rule="evenodd" clip-rule="evenodd" d="M249.696 185.18C249.472 184.434 249.895 183.648 250.641 183.423L250.676 183.413C251.422 183.189 252.208 183.612 252.432 184.357L252.903 185.922C253.127 186.668 252.704 187.455 251.958 187.679L251.923 187.689C251.177 187.913 250.391 187.49 250.167 186.745L249.696 185.18Z" fill="#4487BA"/>
    <path fill-rule="evenodd" clip-rule="evenodd" d="M245.34 186.514C245.115 185.768 245.536 184.981 246.282 184.756L246.317 184.745C247.062 184.52 247.849 184.941 248.075 185.686L248.548 187.25C248.774 187.996 248.352 188.783 247.607 189.008L247.571 189.019C246.826 189.244 246.039 188.823 245.814 188.078L245.34 186.514Z" fill="#4487BA"/>
    <path fill-rule="evenodd" clip-rule="evenodd" d="M242.644 189.946C241.967 190.149 241.255 189.763 241.049 189.083L240.62 187.661C240.42 186.976 240.807 186.258 241.486 186.054C242.166 185.851 242.881 186.236 243.091 186.917L243.51 188.34C243.612 188.668 243.577 189.024 243.414 189.327C243.251 189.629 242.973 189.853 242.644 189.946Z" fill="#4487BA"/>
    <path fill-rule="evenodd" clip-rule="evenodd" d="M238.644 191.951C238.312 192.045 237.955 192.002 237.655 191.831C237.355 191.661 237.137 191.377 237.049 191.044L236.621 189.646C236.42 188.972 236.802 188.263 237.478 188.058C237.804 187.956 238.157 187.989 238.459 188.15C238.761 188.31 238.985 188.584 239.082 188.911L239.501 190.308C239.612 190.639 239.583 191.001 239.422 191.31C239.26 191.62 238.98 191.851 238.644 191.951Z" fill="#4487BA"/>
    <path fill-rule="evenodd" clip-rule="evenodd" d="M234.654 192.944C234.326 193.044 233.973 193.009 233.671 192.847C233.369 192.686 233.143 192.41 233.044 192.082L232.623 190.659C232.524 190.332 232.558 189.979 232.72 189.677C232.881 189.376 233.156 189.151 233.483 189.054C234.162 188.852 234.877 189.237 235.084 189.916L235.514 191.338C235.715 192.02 235.331 192.736 234.654 192.944Z" fill="#4487BA"/>
    <path fill-rule="evenodd" clip-rule="evenodd" d="M229.644 193.947C228.964 194.148 228.251 193.759 228.049 193.076L227.62 191.663C227.42 190.98 227.807 190.262 228.486 190.058C228.813 189.956 229.166 189.989 229.468 190.151C229.77 190.313 229.994 190.591 230.091 190.92L230.51 192.333C230.612 192.662 230.577 193.019 230.414 193.323C230.251 193.627 229.974 193.851 229.644 193.947Z" fill="#4487BA"/>
    <path fill-rule="evenodd" clip-rule="evenodd" d="M223.537 193.08C223.313 192.334 223.735 191.547 224.48 191.323L224.516 191.312C225.261 191.087 226.048 191.509 226.272 192.255L226.744 193.819C226.969 194.565 226.547 195.352 225.801 195.577L225.766 195.587C225.021 195.812 224.234 195.39 224.009 194.645L223.537 193.08Z" fill="#4487BA"/>
    <path fill-rule="evenodd" clip-rule="evenodd" d="M220.645 196.951C220.311 197.045 219.954 197.002 219.652 196.832C219.351 196.661 219.131 196.377 219.042 196.043L218.623 194.644C218.524 194.32 218.558 193.971 218.719 193.672C218.88 193.374 219.153 193.152 219.479 193.055C219.804 192.957 220.155 192.991 220.454 193.151C220.753 193.312 220.976 193.584 221.073 193.909L221.501 195.307C221.612 195.638 221.583 196 221.422 196.31C221.26 196.62 220.98 196.851 220.645 196.951Z" fill="#4487BA"/>
    <path fill-rule="evenodd" clip-rule="evenodd" d="M216.653 197.944C216.326 198.044 215.973 198.009 215.673 197.847C215.372 197.685 215.148 197.409 215.051 197.081L214.621 195.666C214.419 194.979 214.807 194.258 215.49 194.05C215.825 193.954 216.185 193.998 216.487 194.17C216.79 194.343 217.011 194.63 217.101 194.968L217.522 196.383C217.705 197.054 217.318 197.748 216.653 197.944Z" fill="#4487BA"/>
    <path fill-rule="evenodd" clip-rule="evenodd" d="M203.644 201.946C202.967 202.148 202.255 201.763 202.049 201.084L201.62 199.662C201.42 198.978 201.807 198.26 202.486 198.056C202.813 197.956 203.165 197.991 203.466 198.153C203.767 198.314 203.992 198.59 204.091 198.918L204.51 200.331C204.612 200.661 204.577 201.018 204.414 201.322C204.251 201.626 203.974 201.851 203.644 201.946Z" fill="#4487BA"/>
    <path fill-rule="evenodd" clip-rule="evenodd" d="M198.662 203.944C198.334 204.044 197.98 204.009 197.678 203.847C197.376 203.685 197.151 203.409 197.053 203.081L196.622 201.667C196.418 200.983 196.803 200.263 197.485 200.052C197.821 199.954 198.181 199.996 198.485 200.169C198.788 200.342 199.008 200.631 199.093 200.97L199.525 202.383C199.699 203.051 199.319 203.737 198.662 203.944Z" fill="#4487BA"/>
    <path fill-rule="evenodd" clip-rule="evenodd" d="M195.654 204.946C194.972 205.149 194.255 204.764 194.044 204.083L193.623 202.661C193.524 202.334 193.558 201.981 193.72 201.679C193.881 201.378 194.156 201.153 194.483 201.056C194.809 200.956 195.162 200.991 195.462 201.153C195.763 201.315 195.986 201.59 196.084 201.918L196.514 203.34C196.715 204.022 196.331 204.738 195.654 204.946Z" fill="#4487BA"/>
    <path fill-rule="evenodd" clip-rule="evenodd" d="M191.644 205.942C191.319 206.044 190.967 206.01 190.666 205.848C190.366 205.686 190.144 205.409 190.049 205.08L189.62 203.667C189.42 202.981 189.806 202.261 190.487 202.053C191.168 201.851 191.885 202.24 192.091 202.925L192.51 204.337C192.612 204.665 192.577 205.021 192.414 205.323C192.251 205.625 191.973 205.849 191.644 205.942Z" fill="#4487BA"/>
    <path fill-rule="evenodd" clip-rule="evenodd" d="M184.299 204.893C184.074 204.147 184.496 203.36 185.242 203.136L185.277 203.125C186.023 202.9 186.809 203.322 187.034 204.068L187.506 205.632C187.731 206.378 187.309 207.165 186.563 207.39L186.528 207.4C185.783 207.625 184.996 207.203 184.771 206.458L184.299 204.893Z" fill="#4487BA"/>
    <path fill-rule="evenodd" clip-rule="evenodd" d="M182.663 208.942C182.334 209.044 181.978 209.011 181.674 208.848C181.37 208.686 181.144 208.409 181.046 208.079L180.624 206.665C180.523 206.336 180.558 205.981 180.72 205.678C180.882 205.375 181.158 205.149 181.487 205.049C181.822 204.954 182.182 204.998 182.485 205.171C182.787 205.343 183.007 205.63 183.095 205.967L183.527 207.381C183.696 208.047 183.318 208.73 182.663 208.942Z" fill="#4487BA"/>
    <path fill-rule="evenodd" clip-rule="evenodd" d="M175.605 207.484C175.38 206.738 175.802 205.952 176.548 205.727L176.583 205.716C177.328 205.491 178.115 205.913 178.34 206.659L178.812 208.223C179.037 208.969 178.615 209.756 177.869 209.981L177.834 209.991C177.089 210.216 176.302 209.794 176.077 209.049L175.605 207.484Z" fill="#4487BA"/>
    <path fill-rule="evenodd" clip-rule="evenodd" d="M171.228 208.83C171.003 208.085 171.425 207.298 172.171 207.073L172.206 207.063C172.951 206.838 173.738 207.26 173.963 208.005L174.435 209.57C174.66 210.316 174.238 211.102 173.492 211.327L173.457 211.338C172.711 211.562 171.925 211.14 171.7 210.395L171.228 208.83Z" fill="#4487BA"/>
    <path fill-rule="evenodd" clip-rule="evenodd" d="M169.669 212.945C168.986 213.15 168.266 212.762 168.054 212.074L167.623 210.676C167.523 210.345 167.558 209.988 167.72 209.684C167.882 209.379 168.158 209.153 168.486 209.054C169.167 208.85 169.884 209.239 170.091 209.925L170.522 211.361C170.702 212.035 170.327 212.732 169.669 212.945Z" fill="#4487BA"/>
    <path fill-rule="evenodd" clip-rule="evenodd" d="M142.538 217.444C142.315 216.698 142.739 215.912 143.485 215.689L143.521 215.679C144.267 215.456 145.052 215.88 145.275 216.626L145.743 218.192C145.966 218.938 145.542 219.724 144.796 219.947L144.761 219.957C144.015 220.18 143.229 219.756 143.006 219.01L142.538 217.444Z" fill="#4487BA"/>
    <path fill-rule="evenodd" clip-rule="evenodd" d="M140.653 221.942C140.325 222.044 139.97 222.011 139.668 221.849C139.365 221.687 139.14 221.41 139.042 221.081L138.621 219.67C138.419 218.988 138.802 218.269 139.482 218.058C139.808 217.956 140.162 217.99 140.463 218.152C140.765 218.314 140.988 218.59 141.083 218.919L141.513 220.33C141.716 221.012 141.332 221.73 140.653 221.942Z" fill="#4487BA"/>
    <path fill-rule="evenodd" clip-rule="evenodd" d="M135.655 222.946C134.973 223.149 134.257 222.764 134.046 222.083L133.625 220.66C133.523 220.333 133.557 219.978 133.719 219.676C133.88 219.373 134.156 219.149 134.485 219.054C135.163 218.851 135.877 219.237 136.084 219.917L136.514 221.339C136.715 222.021 136.332 222.738 135.655 222.946Z" fill="#4487BA"/>
    <path fill-rule="evenodd" clip-rule="evenodd" d="M129.471 221.38C129.246 220.634 129.668 219.848 130.414 219.623L130.449 219.612C131.195 219.387 131.981 219.809 132.206 220.555L132.678 222.119C132.903 222.865 132.481 223.652 131.736 223.877L131.701 223.887C130.955 224.112 130.169 223.69 129.944 222.945L129.471 221.38Z" fill="#4487BA"/>
    <path fill-rule="evenodd" clip-rule="evenodd" d="M254.597 183.228C254.366 182.461 254.801 181.652 255.568 181.421L257.838 180.738C258.605 180.507 259.413 180.941 259.644 181.708L261.526 187.952C261.757 188.719 261.322 189.528 260.555 189.759L258.285 190.442C257.518 190.673 256.71 190.238 256.479 189.472L254.597 183.228Z" fill="#4487BA"/>
    <path fill-rule="evenodd" clip-rule="evenodd" d="M207.212 197.497C206.981 196.73 207.415 195.921 208.182 195.69L210.452 195.007C211.219 194.776 212.028 195.21 212.258 195.977L214.14 202.221C214.371 202.988 213.936 203.797 213.169 204.028L210.899 204.711C210.133 204.942 209.324 204.508 209.093 203.741L207.212 197.497Z" fill="#4487BA"/>
    <path fill-rule="evenodd" clip-rule="evenodd" d="M232.814 202.781L235.567 201C235.567 201 227.816 201.23 215.727 204.813C203.638 208.395 185.311 214.189 173.567 216C173.567 216 200.458 213.128 202.795 212.508C205.131 211.887 232.814 202.781 232.814 202.781Z" fill="white"/>
    <path fill-rule="evenodd" clip-rule="evenodd" d="M236.535 201C236.535 201 188.571 214.828 163.091 217.859L152.567 221C152.567 221 179.504 220.829 205.692 212.972C205.692 213.002 237.729 204.934 236.535 201Z" fill="#D7E7EB"/>
    <g style="mix-blend-mode:multiply">
        <path fill-rule="evenodd" clip-rule="evenodd" d="M236.535 201C236.535 201 188.571 214.828 163.091 217.859L152.567 221C152.567 221 179.504 220.829 205.692 212.972C205.692 213.002 237.729 204.934 236.535 201Z" fill="#DBE9EB"/>
    </g>
    <path fill-rule="evenodd" clip-rule="evenodd" d="M105.102 214L74.5674 216.676L77.4976 221L107.567 214.987L105.102 214Z" fill="#DBE9EB"/>
    <path fill-rule="evenodd" clip-rule="evenodd" d="M71.5674 212L73.1272 214L93.5674 212.826L71.5674 212Z" fill="#DBE9EB"/>
    <path fill-rule="evenodd" clip-rule="evenodd" d="M76.1214 262.05L67.9707 264.401C67.0088 264.651 66.4113 265.577 66.6031 266.522C66.795 267.466 67.7106 268.105 68.699 267.986C68.8211 267.977 68.9417 267.954 69.0582 267.918L77.2188 265.586C78.2216 265.294 78.7888 264.271 78.4858 263.303C78.1827 262.334 77.1242 261.786 76.1214 262.079V262.05Z" fill="white"/>
    <path fill-rule="evenodd" clip-rule="evenodd" d="M169.488 235.379C169.343 234.887 169.011 234.473 168.566 234.23C168.121 233.987 167.6 233.934 167.117 234.083L84.8826 259.199C83.9663 259.506 83.4177 260.461 83.6034 261.426C83.7891 262.391 84.6509 263.064 85.613 262.995C85.7386 262.985 85.8628 262.961 85.9832 262.924L168.187 237.798C168.676 237.656 169.089 237.32 169.333 236.866C169.577 236.411 169.633 235.876 169.488 235.379Z" fill="white"/>
    <path fill-rule="evenodd" clip-rule="evenodd" d="M51.0397 254.089L34.008 259.19C33.0206 259.454 32.4072 260.435 32.6041 261.435C32.801 262.434 33.741 263.112 34.7557 262.985C34.8806 262.967 35.0038 262.94 35.1244 262.903L52.1561 257.802C52.8302 257.61 53.3485 257.072 53.513 256.393C53.6775 255.714 53.4627 255 52.9507 254.523C52.4388 254.046 51.7087 253.88 51.0397 254.089Z" fill="white"/>
    <path fill-rule="evenodd" clip-rule="evenodd" d="M90.4872 244.421C90.1772 243.369 89.0957 242.771 88.0666 243.082L61.91 251.104C60.9746 251.419 60.4146 252.398 60.6041 253.387C60.7937 254.376 61.6735 255.066 62.6556 254.995C62.7831 254.98 62.9093 254.955 63.0335 254.922L89.1799 246.889C90.2059 246.577 90.7908 245.472 90.4872 244.421Z" fill="white"/>
    <path fill-rule="evenodd" clip-rule="evenodd" d="M62.0235 233.078L47.0282 237.331C46.0269 237.586 45.4049 238.531 45.6046 239.493C45.8043 240.455 46.7574 241.107 47.7862 240.985C47.9126 240.972 48.0376 240.949 48.1601 240.917L63.1554 236.663C63.8325 236.472 64.3503 235.954 64.5137 235.304C64.6771 234.653 64.4614 233.97 63.9477 233.511C63.4341 233.052 62.7006 232.887 62.0235 233.078Z" fill="white"/>
    <path fill-rule="evenodd" clip-rule="evenodd" d="M66.6337 233.573C66.8848 234.487 67.6982 235.081 68.5754 234.991C68.6942 234.982 68.8116 234.957 68.9249 234.918L75.255 232.911C76.2308 232.591 76.7829 231.477 76.488 230.42C76.1931 229.364 75.1629 228.767 74.187 229.086L67.8764 231.124C66.9193 231.443 66.3691 232.527 66.6337 233.573Z" fill="white"/>
    <path fill-rule="evenodd" clip-rule="evenodd" d="M31.6931 232.991C31.8182 232.982 31.9417 232.958 32.0611 232.92L69.2967 221.778C70.2614 221.419 70.781 220.373 70.4839 219.388C70.1868 218.403 69.1752 217.818 68.1723 218.051L30.947 229.203C29.9921 229.491 29.4116 230.456 29.6042 231.434C29.7968 232.412 30.6999 233.085 31.6931 232.991Z" fill="white"/>
    <path fill-rule="evenodd" clip-rule="evenodd" d="M169.097 101.625C167.858 101.625 166.635 101.899 165.515 102.425C163.598 99.0397 159.996 96.9441 156.089 96.9421C155.445 96.9461 154.802 97.0063 154.168 97.1222C152.281 89.593 145.55 84.2596 137.75 84.1144C137.747 80.505 135.431 77.2994 131.992 76.1464C128.553 74.9935 124.758 76.1501 122.559 79.0213C117.344 74.4168 110.096 72.843 103.426 74.8671C96.7568 76.8912 91.6265 82.2214 89.8842 88.9373C85.3986 87.2643 80.3845 87.7744 76.3323 90.3161C72.2801 92.8577 69.6564 97.1382 69.2411 101.885C68.5234 101.688 67.7824 101.587 67.0379 101.585C62.3637 101.585 58.5729 105.351 58.5674 110H177.567C177.54 105.367 173.755 101.625 169.097 101.625Z" fill="white"/>
    <path fill-rule="evenodd" clip-rule="evenodd" d="M349.567 135.244C349.579 132.758 348.41 130.419 346.427 128.959C344.444 127.498 341.889 127.095 339.563 127.876C338.197 122.51 333.432 118.756 327.968 118.742C327.124 118.745 326.283 118.837 325.457 119.016C324.873 110.403 318.425 103.38 309.997 102.179C301.569 100.978 293.463 105.926 290.562 114.043C285.784 110.879 279.681 110.623 274.661 113.375C269.641 116.128 266.51 121.448 266.502 127.237C266.504 128.46 266.645 129.679 266.922 130.87H261.49C259.919 130.87 258.413 131.503 257.302 132.63C256.191 133.757 255.567 135.285 255.567 136.878V137H349.357C349.495 136.425 349.566 135.836 349.567 135.244Z" fill="#00B0FF"/>
    <path fill-rule="evenodd" clip-rule="evenodd" d="M30.3095 190.524C30.3095 187.973 28.2378 185.904 25.6823 185.904C25.4713 185.889 25.2596 185.889 25.0486 185.904C24.6957 182.19 21.572 179.354 17.8361 179.355C16.6032 179.351 15.3903 179.666 14.3154 180.269C13.2853 177.888 10.9378 176.345 8.34029 176.342C7.20303 176.338 6.0852 176.636 5.10123 177.206C2.80299 173.246 -1.55913 170.946 -6.1298 171.284C-10.7005 171.622 -14.6758 174.538 -16.365 178.793C-17.6007 177.959 -19.0584 177.515 -20.5497 177.517C-24.269 177.521 -27.4256 180.242 -27.9733 183.915C-28.9224 182.959 -30.2163 182.424 -31.5644 182.429C-34.3422 182.429 -36.594 184.677 -36.594 187.451C-36.594 187.591 -36.594 187.732 -36.594 187.873H-38.3141C-40.2975 187.873 -41.9053 189.478 -41.9053 191.459V191.529H30.1888C30.268 191.2 30.3085 190.863 30.3095 190.524Z" fill="#00B0FF"/>
    <path opacity="0.41" fill-rule="evenodd" clip-rule="evenodd" d="M441.005 272.426C439.503 272.433 438.022 272.777 436.67 273.43C434.355 269.318 429.998 266.772 425.273 266.771C424.493 266.773 423.715 266.847 422.949 266.992C420.642 257.875 412.508 251.428 403.092 251.252C403.126 246.855 400.338 242.93 396.171 241.508C392.004 240.086 387.393 241.487 384.724 244.985C378.415 239.392 369.646 237.482 361.577 239.943C353.509 242.403 347.305 248.88 345.202 257.038C339.778 254.997 333.71 255.612 328.808 258.699C323.906 261.787 320.736 266.991 320.245 272.757C317.168 271.917 313.874 272.56 311.341 274.495C308.807 276.43 307.323 279.436 307.329 282.621H451.246C451.235 276.983 446.652 272.42 441.005 272.426Z" fill="#00B0FF"/>
    <path fill-rule="evenodd" clip-rule="evenodd" d="M324.007 118.506C325.317 118.51 326.611 118.798 327.799 119.35C330.167 115.105 334.986 112.845 339.77 113.735C341.774 105.778 348.875 100.152 357.091 100.014C357.088 96.1922 359.527 92.794 363.153 91.5683C366.778 90.3426 370.783 91.5626 373.106 94.6004C378.609 89.7204 386.259 88.0522 393.298 90.197C400.337 92.3418 405.751 97.9904 407.589 105.107C412.32 103.327 417.614 103.863 421.891 106.556C426.168 109.249 428.935 113.787 429.367 118.817C432.058 118.086 434.937 118.653 437.149 120.35C439.36 122.048 440.649 124.68 440.633 127.466H315.074C315.064 125.093 316 122.814 317.676 121.133C319.353 119.451 321.631 118.506 324.007 118.506Z" fill="white"/>
    <path fill-rule="evenodd" clip-rule="evenodd" d="M1.98288 55.0661C1.96673 53.4414 2.73879 51.9092 4.05506 50.9539C5.37132 49.9985 7.06913 49.7381 8.61187 50.2549C9.48552 46.7191 12.66 44.233 16.3071 44.2283C16.8684 44.2321 17.4279 44.2927 17.977 44.4091C18.448 38.8452 22.7111 34.3466 28.2487 33.5701C33.7864 32.7936 39.1255 35.9456 41.1131 41.1648C44.6544 38.8381 49.2609 38.9129 52.7247 41.3532C56.1884 43.7936 57.8033 48.1021 56.7953 52.2135H60.3965C61.4448 52.2082 62.452 52.621 63.1942 53.3602C63.9365 54.0995 64.3524 55.1041 64.3497 56.1509V56.2313H2.11365C2.02132 55.8499 1.97739 55.4585 1.98288 55.0661Z" fill="#00B0FF"/>
    <path fill-rule="evenodd" clip-rule="evenodd" d="M18.9629 44.188C18.1004 44.1932 17.2493 44.3851 16.4683 44.7505C14.8802 41.9755 11.7096 40.5053 8.56175 41.0843C7.22919 35.8433 2.54898 32.1408 -2.86547 32.0444C-2.84062 29.5089 -4.44471 27.2425 -6.84658 26.4195C-9.24845 25.5965 -11.9082 26.4019 -13.4477 28.4184C-15.9924 26.1464 -19.2886 24.8942 -22.7022 24.9029C-29.0612 24.9034 -34.6141 29.2004 -36.2016 35.349C-37.4002 34.8952 -38.6717 34.6637 -39.9536 34.666C-45.4835 34.6716 -50.0913 38.8976 -50.5661 44.399C-51.0678 44.2627 -51.5851 44.1918 -52.1051 44.188C-53.6772 44.188 -55.1842 44.815 -56.2912 45.9297C-57.3981 47.0444 -58.0132 48.5545 -57.9998 50.1242H24.8677C24.8784 48.5536 24.261 47.0435 23.1525 45.9291C22.044 44.8147 20.536 44.188 18.9629 44.188Z" fill="white"/>
    <path fill-rule="evenodd" clip-rule="evenodd" d="M302.31 50.5261C302.31 46.9369 299.396 44.0274 295.802 44.0274C295.118 44.0251 294.439 44.1337 293.79 44.3488C292.648 39.8238 288.575 36.6505 283.902 36.6448C283.181 36.65 282.464 36.7274 281.759 36.8758C281.187 29.702 275.703 23.887 268.565 22.8864C261.428 21.8859 254.552 25.9682 252.024 32.7074C247.484 29.769 241.61 29.8805 237.185 32.9891C232.76 36.0978 230.67 41.5798 231.906 46.8398H227.248C224.471 46.8398 222.219 49.0883 222.219 51.862V51.9624H302.139C302.25 51.4917 302.308 51.0098 302.31 50.5261Z" fill="#00B0FF"/>
    <path fill-rule="evenodd" clip-rule="evenodd" d="M400.467 380.754C384.116 380.748 369.218 390.127 362.172 404.86C353.128 402.167 343.372 403.319 335.206 408.043C327.04 412.768 321.187 420.646 319.028 429.821C313.474 425.454 306.25 423.807 299.348 425.335C292.446 426.863 286.595 431.404 283.409 437.705C278.758 427.975 268.46 422.238 257.725 423.398C246.989 424.557 238.158 432.36 235.698 442.858C229.772 439.876 222.546 441.897 219.033 447.519C215.52 453.141 216.878 460.51 222.165 464.515C227.452 468.52 234.925 467.84 239.4 462.947C244.548 470.541 253.398 474.772 262.551 474.014C271.703 473.256 279.735 467.628 283.56 459.291C287.655 467.12 295.797 472.001 304.643 471.929C313.489 471.857 321.55 466.844 325.517 458.949C331.922 467.062 341.661 471.843 352.006 471.954C362.351 472.065 372.191 467.495 378.77 459.522C394.148 468.67 413.623 467.191 427.44 455.826C441.256 444.461 446.438 425.658 440.391 408.834C434.343 392.011 418.368 380.791 400.467 380.794V380.754Z" fill="white"/>
    <path fill-rule="evenodd" clip-rule="evenodd" d="M120.068 440.99C115.751 440.99 111.724 443.161 109.355 446.766C105.598 443.842 100.582 443.098 96.1371 444.807C96.1371 444.506 96.1371 444.204 96.1371 443.903C96.1366 434.057 90.8664 424.961 82.3177 420.053C73.769 415.146 63.2455 415.174 54.7234 420.128C49.6669 407.485 38.1335 398.581 24.6066 396.877C11.0796 395.173 -2.30692 400.938 -10.3493 411.932C-14.1937 410.036 -18.4246 409.053 -22.7121 409.059C-30.1385 409.056 -37.2616 412 -42.5138 417.243C-47.766 422.485 -50.7168 429.597 -50.7168 437.012C-50.7141 444.426 -47.7621 451.535 -42.5102 456.776C-37.2583 462.016 -30.1367 464.958 -22.7121 464.956C-17.0712 464.962 -11.561 463.26 -6.9091 460.074C0.0973167 467.267 9.7046 471.346 19.7532 471.395C29.8018 471.444 39.4486 467.459 46.5252 460.335C51.3611 466.837 58.8217 470.878 66.9163 471.381C75.0109 471.885 82.9159 468.799 88.5223 462.947C90.5611 467.647 95.0752 470.802 100.196 471.106C105.317 471.41 110.173 468.81 112.755 464.383C117.295 467.532 123.345 467.425 127.77 464.116C132.196 460.807 134.002 455.041 132.254 449.804C130.506 444.567 125.596 441.036 120.068 441.04V440.99Z" fill="white"/>
    <defs>
        <linearGradient id="paint0_linear_3031_3685" x1="-58" y1="0" x2="-58" y2="453" gradientUnits="userSpaceOnUse">
            <stop stop-color="#0078FF"/>
            <stop offset="1" stop-color="#00B0FF"/>
        </linearGradient>
    </defs>
</svg>
