<svg width="24" height="26" viewBox="0 0 24 26" fill="none" xmlns="http://www.w3.org/2000/svg">
<path d="M0 11.25H10.2857V0.75H0V11.25ZM3.42857 4.25H6.85714V7.75H3.42857V4.25ZM13.7143 0.75V11.25H24V0.75H13.7143ZM20.5714 7.75H17.1429V4.25H20.5714V7.75ZM0 25.25H10.2857V14.75H0V25.25ZM3.42857 18.25H6.85714V21.75H3.42857V18.25ZM22.2857 14.75H24V21.75H18.8571V20H17.1429V25.25H13.7143V14.75H18.8571V16.5H22.2857V14.75ZM22.2857 23.5H24V25.25H22.2857V23.5ZM18.8571 23.5H20.5714V25.25H18.8571V23.5Z" fill="#0098FF"/>
</svg>
