<svg width="18" height="19" viewBox="0 0 18 19" fill="none" xmlns="http://www.w3.org/2000/svg">
<path fill-rule="evenodd" clip-rule="evenodd" d="M16.347 6.51259C16.2761 5.97718 16.0705 5.46822 15.7493 5.03283C15.3513 4.63399 14.8114 4.40693 14.2464 4.40069C12.1504 4.25 9 4.25 9 4.25C9 4.25 5.85108 4.25 3.75205 4.40069C3.18726 4.4068 2.64761 4.6339 2.24992 5.03283C1.92731 5.4678 1.72137 5.97731 1.6515 6.51335C1.55788 7.31528 1.50731 8.1216 1.5 8.92889V10.0591C1.50726 10.8663 1.55783 11.6727 1.6515 12.4746C1.72271 13.0111 1.92677 13.5217 2.24538 13.9604C2.70268 14.3641 3.29064 14.5909 3.90203 14.5993C5.10115 14.7131 9.00076 14.75 9.00076 14.75C9.00076 14.75 12.1527 14.75 14.2487 14.5993C14.814 14.5927 15.354 14.3654 15.7523 13.9664C16.0728 13.5305 16.2778 13.0213 16.3485 12.4859C16.4421 11.684 16.4927 10.8776 16.5 10.0704V8.92814C16.4915 8.12085 16.4404 7.31456 16.347 6.51259ZM7.4903 11.4507V7.21631L11.5808 9.34027L7.4903 11.4507Z" fill="#0098FF"/>
</svg>
